<svg id="svg" version="1.1" xmlns="http://www.w3.org/2000/svg" xmlns:xlink="http://www.w3.org/1999/xlink" width="400" height="58.59374999999999" viewBox="0, 0, 400,58.59374999999999"><g id="svgg"><path id="path0" d="M313.477 2.959 C 312.456 3.048,309.731 3.162,307.422 3.212 L 303.223 3.302 303.082 9.219 C 303.004 12.474,302.993 18.191,303.058 21.924 L 303.174 28.711 300.464 28.711 L 297.754 28.710 297.789 24.853 C 297.808 22.732,297.852 19.142,297.887 16.876 C 297.959 12.089,297.966 12.109,296.410 12.109 C 295.499 12.109,295.386 12.059,295.165 11.560 C 294.550 10.171,293.068 9.754,289.867 10.070 L 288.472 10.207 288.095 11.061 C 287.779 11.774,287.627 11.915,287.169 11.917 C 286.294 11.922,286.206 12.094,285.977 14.258 C 285.570 18.083,285.541 19.039,285.737 22.049 C 285.878 24.214,285.865 26.263,285.693 29.373 C 285.561 31.748,285.452 34.900,285.451 36.377 L 285.449 39.063 284.927 39.063 L 284.404 39.063 284.404 33.350 C 284.403 28.517,284.449 27.586,284.700 27.309 C 285.387 26.549,284.089 26.295,280.477 26.482 C 276.400 26.694,275.908 26.695,271.338 26.500 L 267.578 26.341 267.578 26.777 C 267.578 27.017,267.512 27.148,267.432 27.067 C 267.351 26.987,267.241 25.105,267.188 22.885 L 267.090 18.848 265.183 18.792 L 263.277 18.736 263.065 19.280 C 262.944 19.591,262.901 20.327,262.965 20.996 C 263.142 22.829,263.466 25.805,263.576 26.611 C 263.661 27.228,263.620 27.344,263.318 27.344 C 262.779 27.344,262.147 28.135,262.075 28.899 C 262.020 29.492,261.930 29.593,261.359 29.708 C 260.249 29.934,259.885 31.831,260.400 34.701 L 260.546 35.515 258.056 35.491 C 256.687 35.478,255.377 35.532,255.145 35.612 L 254.724 35.757 254.833 41.218 C 254.925 45.827,254.900 46.679,254.668 46.673 C 254.148 46.662,253.758 46.180,253.484 45.211 C 253.226 44.297,253.161 44.228,252.407 44.068 L 251.603 43.898 251.666 36.580 C 251.701 32.554,251.776 29.214,251.833 29.156 C 252.426 28.564,250.562 27.344,248.030 26.666 C 245.979 26.117,245.557 26.158,245.402 26.917 C 244.990 28.936,244.916 29.042,243.848 29.143 L 243.262 29.199 243.151 24.560 L 243.040 19.920 242.502 19.358 C 242.206 19.049,241.509 18.554,240.953 18.257 C 239.382 17.420,239.067 17.071,239.306 16.437 C 239.632 15.573,239.300 10.973,238.896 10.763 C 238.028 10.311,235.313 10.390,235.404 10.864 C 235.451 11.112,235.395 11.346,235.279 11.385 C 235.143 11.430,235.056 12.443,235.035 14.231 C 234.999 17.332,235.056 17.171,233.074 19.761 C 230.778 22.761,230.298 24.502,230.401 29.443 L 230.430 30.859 228.469 30.859 C 225.858 30.859,225.991 30.624,225.983 35.275 L 225.977 39.008 224.927 39.116 C 222.803 39.335,221.963 40.027,222.282 41.295 C 222.666 42.818,222.436 43.230,221.264 43.118 C 220.143 43.010,219.922 43.277,219.922 44.739 C 219.922 45.958,219.599 45.631,219.474 44.285 C 219.288 42.298,218.675 41.945,216.716 42.696 C 216.464 42.793,216.406 42.665,216.406 42.017 C 216.406 41.092,216.156 40.961,214.546 41.047 C 214.012 41.076,213.069 41.080,212.451 41.057 L 211.328 41.016 211.328 40.063 C 211.328 39.134,210.974 38.505,210.587 38.745 C 210.492 38.803,210.072 38.499,209.652 38.070 L 208.889 37.288 206.306 37.422 C 204.515 37.515,203.373 37.482,202.579 37.313 L 201.434 37.070 200.424 38.054 L 199.414 39.037 199.386 41.931 C 199.357 44.821,199.357 44.822,199.215 42.955 C 199.008 40.239,198.796 39.746,197.931 39.963 C 197.579 40.052,197.483 39.935,197.265 39.158 C 197.072 38.467,196.812 38.100,196.187 37.630 C 195.734 37.290,195.225 36.770,195.054 36.475 L 194.745 35.937 192.148 35.957 C 188.548 35.984,188.588 35.968,188.516 37.459 C 188.467 38.479,188.401 38.672,188.104 38.672 C 187.909 38.672,187.356 38.726,186.874 38.792 L 185.998 38.912 185.821 37.669 L 185.645 36.426 184.326 36.426 L 183.007 36.426 182.973 34.375 C 182.955 33.247,182.959 32.006,182.984 31.617 C 183.042 30.690,182.842 30.647,179.994 30.976 C 177.286 31.288,177.422 31.223,177.260 32.301 C 177.125 33.198,176.872 33.390,175.810 33.396 L 175.351 33.398 175.471 29.932 C 175.536 28.025,175.523 24.417,175.442 21.914 C 175.349 19.067,175.363 17.293,175.480 17.176 C 176.006 16.651,175.093 16.373,173.549 16.587 C 172.720 16.703,170.840 16.798,169.371 16.800 C 167.901 16.802,166.567 16.886,166.406 16.988 C 166.072 17.199,165.737 24.696,165.946 27.286 C 166.073 28.860,166.184 28.740,164.374 28.984 C 163.954 29.041,163.383 29.297,163.104 29.554 C 162.826 29.811,162.457 30.070,162.285 30.130 C 161.902 30.263,161.775 31.605,161.592 37.451 L 161.462 41.602 160.998 41.602 C 160.353 41.602,159.391 42.033,158.659 42.650 L 158.040 43.171 157.904 42.533 C 157.710 41.621,156.488 40.080,155.850 39.939 C 155.292 39.817,155.157 39.144,154.980 35.586 C 154.913 34.253,155.089 34.337,152.307 34.307 C 148.936 34.270,147.222 34.609,146.440 35.469 C 145.604 36.387,144.727 36.412,144.727 35.519 C 144.727 32.596,144.258 24.268,144.081 24.053 C 143.908 23.842,143.024 23.803,139.698 23.857 L 135.531 23.926 135.413 24.394 C 135.348 24.651,135.357 26.778,135.432 29.119 L 135.570 33.376 134.632 33.436 L 133.695 33.496 133.687 34.863 C 133.683 35.615,133.552 38.076,133.396 40.332 L 133.112 44.434 132.950 42.090 C 132.841 40.507,132.856 39.636,132.996 39.407 C 133.640 38.352,133.026 38.075,130.606 38.325 C 128.297 38.564,128.471 38.724,128.388 36.293 C 128.314 34.166,128.199 33.920,127.344 34.072 C 127.075 34.120,125.701 34.217,124.290 34.288 L 121.724 34.416 121.583 32.634 C 121.478 31.298,121.505 30.777,121.693 30.550 C 121.904 30.297,121.798 29.941,121.041 28.356 C 120.544 27.316,120.086 26.218,120.023 25.915 L 119.908 25.366 117.338 25.505 L 114.768 25.645 113.683 26.817 C 113.086 27.461,112.172 28.525,111.651 29.180 C 111.131 29.835,110.533 30.507,110.323 30.672 C 109.981 30.942,109.964 31.066,110.154 31.844 C 110.471 33.135,110.670 45.703,110.374 45.703 C 110.248 45.703,109.868 45.388,109.530 45.003 L 108.915 44.303 107.534 44.440 C 105.964 44.595,105.546 44.761,105.375 45.301 C 105.145 46.024,101.692 45.765,100.541 44.939 L 99.642 44.293 96.586 44.364 L 93.530 44.434 93.591 41.407 L 93.652 38.379 92.866 38.412 C 92.143 38.442,92.044 38.382,91.640 37.679 L 91.199 36.914 89.938 36.914 C 88.679 36.914,88.676 36.915,88.184 37.695 C 87.901 38.143,87.538 38.477,87.333 38.477 C 86.699 38.477,86.328 39.113,86.328 40.201 C 86.328 41.449,86.029 41.524,85.849 40.322 C 85.688 39.252,85.253 39.016,83.607 39.103 L 82.520 39.160 82.459 39.990 C 82.402 40.788,82.374 40.820,81.751 40.820 C 81.061 40.820,80.748 40.212,80.981 39.322 C 81.211 38.443,79.191 38.285,72.070 38.625 L 69.043 38.770 68.984 39.785 L 68.926 40.801 67.812 40.860 L 66.699 40.918 66.641 42.139 C 66.584 43.337,66.573 43.359,66.026 43.359 L 65.468 43.359 65.327 41.103 C 65.250 39.862,65.245 38.327,65.317 37.691 C 65.495 36.117,64.742 35.962,59.114 36.415 C 56.376 36.635,56.404 36.605,56.482 39.177 L 56.543 41.193 55.176 41.422 C 53.743 41.661,53.524 41.808,53.519 42.529 C 53.517 42.838,53.399 42.969,53.125 42.969 C 52.788 42.969,52.734 42.839,52.734 42.025 C 52.734 40.626,52.371 40.485,49.499 40.772 C 48.268 40.895,47.168 41.053,47.054 41.123 C 46.855 41.247,46.905 45.547,47.180 51.953 L 47.285 54.395 46.039 54.398 L 44.793 54.401 45.418 53.519 C 48.371 49.354,45.739 44.470,40.527 44.443 C 35.256 44.415,32.547 50.063,36.066 53.743 L 36.564 54.263 33.370 54.356 C 31.613 54.408,28.462 54.567,26.367 54.709 C 21.597 55.034,18.106 55.037,15.291 54.719 C 13.574 54.525,12.165 54.519,8.749 54.691 C 6.354 54.812,3.406 54.960,2.197 55.019 C 0.164 55.119,0.000 55.156,0.000 55.519 C 0.000 55.906,0.093 55.910,7.411 55.823 C 12.044 55.767,15.466 55.813,16.541 55.943 C 18.689 56.204,26.212 55.863,31.666 55.257 C 33.856 55.013,36.039 55.126,37.939 55.581 C 38.727 55.770,38.652 55.128,37.763 54.071 C 34.099 49.714,36.949 44.575,42.285 45.919 C 45.657 46.768,46.431 51.156,43.654 53.683 C 42.377 54.845,42.768 55.148,45.821 55.366 C 47.483 55.485,47.813 55.461,47.907 55.214 C 48.155 54.569,48.482 47.602,48.397 44.792 L 48.306 41.797 49.006 41.795 C 49.392 41.794,50.163 41.739,50.721 41.672 L 51.735 41.550 51.622 42.646 C 51.480 44.016,51.707 44.336,52.819 44.336 C 53.784 44.336,54.338 43.988,54.409 43.340 C 54.437 43.082,54.467 42.805,54.476 42.725 C 54.485 42.644,54.954 42.577,55.518 42.575 C 57.371 42.570,57.501 42.411,57.639 39.980 C 57.783 37.441,57.306 37.756,61.127 37.670 L 64.344 37.598 64.283 40.751 C 64.208 44.663,64.237 44.739,65.771 44.588 C 67.445 44.424,67.578 44.311,67.578 43.060 C 67.578 42.014,67.590 41.992,68.140 41.992 C 69.719 41.992,69.922 41.843,69.922 40.677 C 69.922 39.868,69.985 39.631,70.181 39.706 C 70.861 39.967,73.112 40.048,74.562 39.864 C 75.449 39.751,77.009 39.714,78.029 39.781 L 79.883 39.903 79.883 40.843 C 79.883 42.069,80.241 42.280,82.066 42.127 C 83.742 41.986,83.842 41.919,83.753 40.993 C 83.685 40.280,83.713 40.234,84.213 40.234 C 84.708 40.234,84.748 40.297,84.804 41.162 L 84.863 42.090 85.742 42.147 C 86.974 42.228,87.299 41.926,87.439 40.572 C 87.551 39.490,87.574 39.453,88.129 39.453 C 88.615 39.453,88.749 39.336,89.002 38.692 C 89.324 37.874,90.347 37.405,90.649 37.936 C 91.225 38.951,91.777 39.560,92.174 39.617 L 92.635 39.683 92.526 42.292 C 92.391 45.497,92.111 45.258,96.103 45.342 L 99.336 45.410 100.191 46.143 L 101.047 46.875 103.160 46.875 C 105.364 46.875,106.055 46.620,106.055 45.804 C 106.055 45.253,108.255 45.511,108.968 46.146 C 109.297 46.439,109.789 46.680,110.060 46.680 C 110.330 46.680,110.720 46.784,110.924 46.912 C 111.219 47.096,111.366 47.087,111.631 46.866 C 112.151 46.435,111.873 35.619,111.242 31.738 C 111.156 31.210,111.364 30.922,113.342 28.831 L 115.538 26.509 117.388 26.653 L 119.238 26.796 119.899 28.681 C 120.568 30.588,120.683 31.719,120.410 33.696 C 120.211 35.141,120.373 35.212,124.118 35.314 L 127.390 35.404 127.255 37.310 C 127.093 39.601,126.931 39.455,129.788 39.596 L 132.022 39.706 132.075 42.851 L 132.129 45.996 133.246 46.054 C 134.628 46.127,134.638 46.103,134.542 42.730 C 134.505 41.411,134.496 38.997,134.522 37.365 L 134.570 34.397 135.399 34.337 C 136.430 34.263,136.445 34.189,136.549 28.663 L 136.621 24.806 139.648 24.808 C 141.313 24.810,142.786 24.881,142.921 24.966 C 143.108 25.085,143.160 26.397,143.143 30.578 C 143.117 36.608,143.175 36.985,144.150 37.180 C 146.110 37.572,147.461 37.066,147.461 35.940 C 147.461 35.561,149.202 35.355,152.422 35.353 L 154.161 35.352 154.045 37.670 C 153.914 40.261,154.125 40.820,155.232 40.821 C 156.277 40.822,156.836 42.398,156.836 45.344 C 156.836 47.418,156.885 47.829,157.147 47.929 C 157.611 48.107,157.813 47.896,157.813 47.230 C 157.812 45.035,159.668 42.627,161.197 42.836 C 162.779 43.053,162.854 42.779,163.008 36.183 L 163.135 30.762 163.635 30.225 C 164.093 29.734,164.258 29.687,165.559 29.688 C 167.715 29.688,167.684 29.779,167.403 24.263 C 167.278 21.822,167.129 19.337,167.070 18.742 L 166.963 17.661 168.931 17.818 C 170.013 17.905,171.668 17.899,172.608 17.805 C 173.547 17.712,174.348 17.661,174.386 17.692 C 174.424 17.724,174.359 20.018,174.242 22.791 C 174.125 25.563,174.012 29.282,173.991 31.053 L 173.952 34.275 174.720 34.410 C 177.218 34.848,178.486 34.274,178.198 32.835 C 178.052 32.104,178.098 32.084,180.225 31.980 L 181.836 31.901 181.836 34.679 C 181.836 37.643,181.947 37.963,182.814 37.499 C 183.806 36.969,184.766 37.251,184.766 38.073 C 184.766 39.760,184.851 39.816,187.243 39.702 C 189.728 39.583,189.728 39.583,189.672 38.189 L 189.628 37.109 191.982 37.109 C 193.787 37.109,194.336 37.169,194.336 37.364 C 194.336 37.657,195.407 38.719,196.019 39.032 C 196.319 39.186,196.408 39.375,196.342 39.720 C 196.220 40.356,196.889 41.016,197.656 41.016 L 198.242 41.016 198.242 43.435 C 198.242 46.169,198.527 46.959,199.353 46.517 C 200.344 45.986,200.676 43.719,200.112 41.323 C 199.840 40.167,200.056 39.258,200.602 39.258 C 200.693 39.258,201.058 39.003,201.414 38.690 C 202.031 38.149,202.107 38.132,203.094 38.311 C 203.663 38.415,205.188 38.472,206.484 38.439 L 208.840 38.379 209.498 39.001 C 210.089 39.558,210.156 39.731,210.156 40.686 C 210.156 41.973,210.316 42.132,211.894 42.410 C 212.907 42.588,213.163 42.573,213.569 42.306 C 214.619 41.619,215.430 42.012,215.430 43.209 C 215.430 44.161,215.787 44.314,217.003 43.882 C 218.367 43.397,218.359 43.392,218.359 44.976 C 218.359 48.186,220.651 48.103,221.185 44.873 C 221.306 44.143,221.310 44.141,222.263 44.141 C 223.430 44.141,223.487 44.056,223.559 42.215 C 223.627 40.507,223.610 40.522,225.537 40.369 C 227.524 40.212,227.391 40.564,227.231 35.890 L 227.090 31.782 227.778 31.911 C 228.156 31.981,229.023 32.047,229.706 32.057 C 230.582 32.069,231.010 32.163,231.166 32.376 C 231.606 32.977,231.749 31.600,231.639 27.832 L 231.531 24.121 232.391 22.881 C 232.863 22.199,233.862 20.969,234.610 20.147 C 236.265 18.328,236.682 17.572,236.377 16.946 C 236.259 16.703,236.107 15.371,236.039 13.987 L 235.916 11.470 236.537 11.594 C 236.879 11.663,237.373 11.719,237.635 11.719 L 238.112 11.719 237.976 14.213 C 237.858 16.387,237.881 16.741,238.158 16.971 C 238.333 17.117,238.477 17.347,238.477 17.484 C 238.477 17.731,238.692 17.931,240.993 19.824 L 242.180 20.801 242.184 25.207 C 242.188 30.539,242.134 30.393,244.046 30.197 C 245.690 30.029,245.565 30.116,246.103 28.763 C 246.349 28.144,246.565 27.615,246.583 27.587 C 246.764 27.314,250.532 29.069,250.637 29.475 C 250.680 29.646,250.639 33.117,250.544 37.188 C 250.358 45.218,250.320 44.909,251.504 45.100 C 252.196 45.213,252.261 45.282,252.473 46.136 C 252.776 47.362,252.793 47.380,253.807 47.635 C 255.864 48.153,255.992 47.688,255.756 40.592 L 255.612 36.273 256.078 36.384 C 256.334 36.446,257.378 36.554,258.398 36.624 C 259.419 36.694,260.398 36.791,260.575 36.839 C 261.442 37.077,261.621 35.814,261.236 32.178 L 261.075 30.664 262.042 30.664 C 263.248 30.664,263.477 30.438,263.477 29.248 C 263.477 28.478,263.572 28.213,263.988 27.827 C 264.537 27.319,264.555 25.868,264.064 21.826 C 263.826 19.867,263.899 19.727,265.159 19.727 L 266.211 19.727 266.233 22.217 C 266.286 28.108,266.450 29.785,266.976 29.785 C 267.381 29.785,267.517 29.596,267.939 28.444 L 268.430 27.103 269.518 27.235 C 273.004 27.659,275.755 27.823,279.452 27.827 L 283.612 27.832 283.505 30.127 C 283.267 35.247,283.236 37.085,283.363 38.574 L 283.496 40.137 284.277 40.092 C 286.757 39.951,286.842 39.455,286.995 24.316 C 287.004 23.457,286.934 20.535,286.839 17.822 L 286.666 12.891 287.267 12.891 C 287.788 12.891,287.955 12.747,288.511 11.816 C 289.239 10.599,289.147 10.622,292.344 10.871 C 293.920 10.993,293.972 11.014,294.238 11.602 C 294.686 12.597,294.973 12.820,295.981 12.957 C 297.150 13.116,297.019 12.567,296.870 16.699 C 296.801 18.633,296.795 22.324,296.858 24.902 L 296.973 29.590 300.293 29.688 C 302.119 29.741,303.685 29.731,303.772 29.666 C 303.953 29.529,303.958 6.485,303.777 4.932 L 303.657 3.907 304.905 4.053 C 306.429 4.232,308.655 4.221,313.786 4.009 L 317.708 3.848 317.737 7.051 C 317.753 8.812,317.806 13.110,317.855 16.602 C 317.904 20.093,317.949 25.740,317.956 29.150 C 317.968 35.047,317.986 35.352,318.330 35.352 C 318.727 35.352,320.508 33.844,320.508 33.508 C 320.508 33.361,321.202 33.342,322.803 33.445 C 324.065 33.526,325.494 33.543,325.979 33.484 L 326.861 33.374 326.858 34.013 C 326.854 34.919,327.461 35.197,329.102 35.041 C 330.878 34.872,331.160 34.568,330.908 33.102 L 330.715 31.984 333.613 32.067 C 336.969 32.162,336.735 32.066,336.513 33.252 C 336.259 34.614,336.376 34.773,337.568 34.681 C 338.122 34.639,338.813 34.597,339.104 34.587 C 339.831 34.564,340.106 33.490,340.001 31.087 L 339.922 29.264 340.755 29.389 C 341.994 29.575,343.818 27.741,343.621 26.507 L 343.496 25.727 344.160 25.844 C 345.721 26.119,347.247 26.184,348.366 26.024 L 349.564 25.852 349.538 27.210 L 349.512 28.567 350.488 29.243 C 351.381 29.860,351.478 30.003,351.614 30.909 C 351.795 32.109,352.027 32.422,352.738 32.422 C 353.425 32.422,353.476 32.838,353.313 37.074 C 353.248 38.759,353.235 40.728,353.283 41.451 L 353.372 42.765 354.057 42.894 C 355.854 43.231,358.537 42.754,358.805 42.049 C 358.981 41.585,358.893 35.233,358.679 32.953 C 358.559 31.678,358.344 31.768,360.449 32.218 C 360.986 32.332,362.103 32.447,362.931 32.473 L 364.436 32.520 364.559 33.503 C 364.627 34.043,364.653 38.760,364.617 43.983 C 364.555 52.935,364.611 54.208,365.043 53.510 C 365.253 53.169,387.916 53.171,395.057 53.513 C 399.558 53.728,400.000 53.684,400.000 53.024 C 400.000 52.597,399.915 52.570,398.193 52.463 C 394.288 52.221,370.896 52.211,368.096 52.451 C 366.576 52.581,365.328 52.676,365.322 52.662 C 365.317 52.648,365.388 51.011,365.479 49.023 C 365.649 45.350,365.504 34.024,365.267 32.422 C 365.138 31.554,365.127 31.543,364.355 31.518 C 363.926 31.504,362.776 31.394,361.800 31.274 C 360.187 31.074,358.399 31.184,358.081 31.503 C 358.023 31.560,357.926 33.803,357.865 36.488 L 357.753 41.369 356.660 41.504 C 356.058 41.579,355.281 41.758,354.932 41.904 L 354.297 42.168 354.297 37.115 C 354.297 31.384,354.307 31.445,353.397 31.445 L 352.734 31.445 352.734 30.297 L 352.734 29.149 351.684 28.513 C 350.603 27.857,350.478 27.588,350.343 25.618 C 350.311 25.137,349.535 25.050,346.165 25.150 L 342.818 25.248 342.909 25.954 C 343.044 27.005,341.776 28.197,340.137 28.559 L 338.965 28.818 339.008 31.304 C 339.048 33.625,339.026 33.789,338.682 33.789 C 338.479 33.789,338.181 33.840,338.019 33.902 C 337.736 34.011,337.655 33.730,337.426 31.836 C 337.337 31.092,337.161 31.055,333.717 31.055 C 330.191 31.055,329.234 31.254,329.834 31.862 C 329.969 31.999,330.078 32.584,330.078 33.170 L 330.078 34.230 329.056 34.094 C 327.905 33.942,327.680 33.734,327.823 32.953 C 327.967 32.164,327.469 32.056,324.609 32.252 C 321.320 32.478,319.710 32.761,319.411 33.166 C 319.002 33.723,318.981 33.343,318.850 22.949 C 318.674 9.018,318.561 3.263,318.459 2.979 C 318.360 2.701,316.516 2.694,313.477 2.959 " stroke="none" fill="#000000" fill-rule="evenodd"></path></g></svg>