<svg id="svg" xmlns="http://www.w3.org/2000/svg" xmlns:xlink="http://www.w3.org/1999/xlink" width="400" height="166.01562500000003" viewBox="0, 0, 400,166.01562500000003"><g id="svgg"><path id="path0" d="M121.456 4.487 C 118.937 5.248,114.756 8.857,112.777 11.978 C 112.058 13.111,112.149 13.152,111.248 11.275 C 110.349 9.404,108.370 7.289,106.641 6.351 C 102.094 3.887,98.321 9.120,99.885 15.723 C 100.895 19.989,102.271 22.143,108.158 28.672 C 111.981 32.912,112.354 33.716,112.466 37.937 C 112.549 41.108,112.683 41.523,113.084 39.850 C 113.212 39.316,113.402 38.898,113.506 38.922 C 113.610 38.946,113.898 38.350,114.145 37.598 C 115.715 32.820,117.768 29.186,122.865 22.162 C 127.361 15.966,128.223 14.083,128.223 10.449 C 128.223 5.860,125.334 3.315,121.456 4.487 M123.614 8.516 C 124.937 10.198,124.015 13.594,121.102 17.773 C 116.052 25.018,114.590 27.459,113.855 29.878 L 113.441 31.241 112.951 30.318 C 112.228 28.954,111.061 27.392,108.328 24.130 C 103.000 17.772,101.195 11.873,103.742 9.147 C 105.339 7.437,109.808 11.476,110.638 15.379 C 110.712 15.727,110.853 16.061,110.953 16.123 C 111.052 16.184,111.133 16.442,111.133 16.697 C 111.133 18.577,113.572 18.187,113.877 16.258 C 114.261 13.830,118.829 9.200,121.736 8.291 C 122.924 7.920,123.167 7.949,123.614 8.516 M265.322 11.549 C 264.662 11.870,264.412 12.485,264.023 14.742 C 263.639 16.976,263.197 18.749,259.933 31.126 C 251.435 63.353,247.854 83.480,249.106 91.962 C 250.883 103.998,260.186 107.715,270.003 100.311 C 272.160 98.684,276.414 95.099,276.310 94.995 C 276.266 94.951,274.788 95.678,273.027 96.612 C 263.535 101.645,258.650 102.256,255.273 98.832 C 250.567 94.061,250.845 85.283,256.467 61.230 C 258.248 53.610,259.994 46.855,265.525 26.189 C 267.580 18.513,268.555 14.378,268.555 13.343 C 268.555 11.890,266.718 10.871,265.322 11.549 M193.753 12.646 C 193.229 13.124,193.020 13.707,191.884 17.868 C 188.906 28.772,187.067 35.889,185.436 42.822 L 183.703 50.194 183.111 50.282 C 175.350 51.440,169.858 53.486,168.907 55.574 C 168.644 56.150,168.817 56.404,169.237 56.056 C 169.425 55.900,170.577 55.744,172.317 55.640 C 176.005 55.419,178.586 55.131,180.944 54.677 C 182.012 54.472,182.902 54.325,182.924 54.349 C 182.945 54.374,182.535 56.592,182.013 59.277 C 177.306 83.497,179.071 100.626,186.735 105.118 C 193.129 108.865,200.458 102.369,208.865 85.504 L 211.856 79.504 211.989 81.695 C 213.320 103.624,235.189 105.753,243.044 84.719 C 247.338 73.223,245.680 57.869,239.527 52.140 C 234.617 47.569,228.957 46.830,219.544 49.531 C 214.928 50.856,214.875 50.931,218.951 50.374 C 227.958 49.144,232.451 50.031,236.240 53.787 C 243.449 60.933,241.799 82.852,233.421 91.228 C 229.207 95.443,224.110 96.131,220.191 93.014 C 214.026 88.110,213.270 72.532,218.670 61.657 C 220.721 57.526,223.438 55.315,223.438 57.776 C 223.438 58.707,223.822 59.375,224.357 59.375 C 225.289 59.375,225.366 56.263,224.454 55.448 C 220.240 51.683,213.042 63.856,211.997 76.516 L 211.863 78.129 208.743 82.766 C 201.195 93.980,195.639 99.942,191.133 101.663 C 188.077 102.830,185.049 98.646,183.426 91.016 C 181.710 82.948,182.772 71.907,187.006 53.790 C 187.091 53.425,187.541 53.295,191.256 52.571 C 196.931 51.463,198.290 51.261,204.590 50.583 C 211.136 49.879,214.897 49.426,214.993 49.329 C 215.326 48.997,205.167 48.561,200.391 48.702 C 196.704 48.811,194.608 48.966,189.221 49.525 L 187.914 49.661 189.578 43.141 C 191.162 36.934,194.226 25.672,196.304 18.421 C 197.330 14.838,197.437 13.984,196.971 13.082 C 196.381 11.943,194.765 11.724,193.753 12.646 M309.780 38.482 C 303.267 39.384,295.261 43.182,287.564 49.023 C 282.546 52.831,281.603 53.475,280.713 53.701 C 279.392 54.037,279.583 55.474,280.947 55.464 C 281.893 55.458,282.987 54.859,286.579 52.381 C 295.889 45.959,303.822 42.553,309.603 42.497 C 311.640 42.477,311.515 42.369,311.760 44.371 C 312.269 48.545,310.602 58.419,307.892 67.285 L 306.936 70.410 306.806 69.104 C 306.262 63.661,302.521 61.214,295.313 61.585 C 287.097 62.008,281.457 65.607,278.580 72.262 C 274.421 81.883,279.870 94.458,288.184 94.424 C 292.483 94.406,295.704 92.332,301.029 86.151 C 301.992 85.034,302.728 84.287,302.664 84.491 C 302.141 86.165,301.818 91.800,302.136 93.682 C 302.712 97.087,304.285 98.812,307.114 99.145 C 308.422 99.298,308.409 99.382,307.324 97.764 C 306.191 96.075,306.186 95.573,307.225 89.292 C 308.276 82.941,308.527 81.878,310.584 75.098 C 314.851 61.026,315.759 57.313,316.503 50.880 C 317.638 41.072,315.783 37.651,309.780 38.482 M361.794 44.902 C 340.482 51.180,333.854 55.660,328.590 67.348 L 327.763 69.184 327.860 67.258 C 328.004 64.390,328.684 56.117,329.011 53.253 C 329.373 50.080,329.383 50.263,328.817 49.698 C 327.855 48.735,326.203 49.237,325.893 50.586 C 325.715 51.361,324.653 62.196,324.314 66.699 C 323.946 71.570,323.894 80.300,324.206 84.668 C 324.570 89.771,324.995 98.008,324.998 100.007 C 325.002 103.639,327.117 105.497,329.691 104.131 C 331.432 103.206,331.605 101.607,331.077 91.313 C 330.409 78.279,332.257 69.748,337.380 62.221 C 341.475 56.204,345.719 53.436,362.109 46.095 C 370.602 42.291,370.606 42.306,361.794 44.902 M141.142 46.287 C 130.580 47.623,123.976 52.010,123.682 57.883 C 123.304 65.451,129.095 70.974,147.363 80.464 C 158.099 86.042,160.323 87.462,163.493 90.767 C 168.789 96.286,167.935 101.070,161.328 102.900 C 152.864 105.244,145.617 104.933,139.551 101.965 C 134.271 99.382,133.090 97.248,132.867 89.893 C 132.804 87.825,132.695 86.133,132.623 86.133 C 131.791 86.133,131.234 96.137,131.950 98.242 C 134.333 105.258,147.793 109.537,160.352 107.271 C 172.166 105.139,174.702 97.010,166.218 88.469 C 163.079 85.309,160.306 83.345,152.441 78.710 C 138.372 70.419,132.352 66.014,129.175 61.686 C 125.349 56.473,129.400 51.949,139.753 49.872 C 149.025 48.013,157.739 52.400,155.644 57.874 C 154.714 60.305,157.178 61.446,158.228 59.070 C 161.476 51.728,152.315 44.873,141.142 46.287 M388.770 49.993 C 386.710 50.855,385.678 56.466,386.037 64.844 C 386.197 68.601,385.957 70.037,383.875 77.778 C 380.061 91.956,375.747 100.379,371.935 101.094 C 368.474 101.744,361.933 93.900,359.295 85.938 C 356.282 76.843,356.880 61.292,360.556 53.127 C 361.538 50.948,361.406 50.000,360.123 50.000 C 357.956 50.000,355.676 58.502,355.088 68.772 C 354.299 82.562,357.807 93.543,365.488 101.331 C 373.188 109.138,380.881 101.861,386.407 81.543 C 386.670 80.576,386.892 80.004,386.900 80.271 C 386.908 80.538,387.131 83.482,387.396 86.814 C 390.593 126.971,386.191 142.074,368.893 150.291 C 359.839 154.592,350.417 155.185,347.492 151.636 C 343.596 146.909,344.815 140.803,352.044 128.832 C 353.399 126.589,354.470 124.717,354.424 124.672 C 354.348 124.596,352.289 127.050,348.668 131.532 C 341.943 139.855,340.198 146.383,343.103 152.344 C 346.686 159.696,358.108 160.222,371.041 153.630 C 388.945 144.504,393.760 129.241,391.690 88.184 C 390.530 65.200,390.545 60.225,391.790 53.733 C 392.346 50.839,390.931 49.088,388.770 49.993 M81.152 50.861 C 68.983 52.902,55.206 63.922,47.609 77.692 L 46.777 79.199 46.680 77.995 C 46.529 76.140,46.375 76.358,46.138 78.760 C 45.995 80.209,45.748 81.415,45.413 82.302 C 45.134 83.041,44.781 84.238,44.629 84.962 C 43.058 92.428,34.628 105.714,28.142 110.945 C 18.170 118.988,8.821 113.062,10.069 99.488 L 10.197 98.097 10.909 98.263 C 18.663 100.065,32.222 87.816,36.769 74.902 C 41.142 62.483,39.337 54.004,32.320 54.004 C 28.884 54.004,26.999 55.176,22.857 59.890 C 5.058 80.142,0.605 111.560,14.579 118.282 C 24.186 122.902,35.895 114.345,42.516 97.867 C 43.342 95.810,45.508 89.216,45.508 88.757 C 45.508 88.706,45.728 88.720,45.996 88.787 C 47.262 89.105,47.693 88.455,48.043 85.709 C 48.503 82.093,51.766 76.007,56.508 69.922 C 57.729 68.355,57.705 68.216,57.033 73.037 C 56.270 78.504,55.323 86.718,53.929 99.961 C 53.304 105.902,52.712 110.843,52.613 110.941 C 52.515 111.039,51.400 111.344,50.136 111.617 L 47.837 112.114 47.369 111.575 L 46.901 111.035 46.595 111.761 C 45.676 113.942,47.138 114.957,50.488 114.466 C 52.362 114.191,52.344 114.188,52.343 114.795 C 52.343 115.090,51.857 119.375,51.264 124.316 C 49.999 134.845,49.704 137.760,49.309 143.613 C 49.148 145.998,48.936 148.433,48.839 149.023 C 48.453 151.357,48.800 152.565,49.766 152.258 C 50.776 151.938,52.327 143.312,54.984 123.242 C 55.688 117.925,56.304 113.398,56.353 113.184 C 56.412 112.926,56.882 112.598,57.735 112.218 C 62.646 110.035,71.287 104.803,76.953 100.581 C 90.938 90.160,97.125 80.636,97.124 69.531 C 97.122 56.607,90.820 49.239,81.152 50.861 M106.909 51.873 C 106.062 52.290,105.785 52.989,105.174 56.250 C 104.882 57.808,104.299 60.928,103.878 63.184 C 100.816 79.599,100.009 95.443,101.969 100.680 C 104.148 106.506,109.736 108.058,114.030 104.031 C 117.013 101.233,118.302 98.787,122.869 87.256 C 123.496 85.674,123.023 86.196,120.213 90.186 C 111.643 102.355,108.682 104.376,106.288 99.684 C 103.900 95.003,105.435 75.959,109.684 57.556 C 110.051 55.965,110.352 54.357,110.352 53.982 C 110.352 52.130,108.584 51.046,106.909 51.873 M85.688 55.156 C 91.647 57.885,94.108 70.301,90.504 79.455 C 87.328 87.524,78.408 96.996,67.039 104.374 C 63.571 106.624,57.239 109.843,56.916 109.520 C 56.704 109.308,60.555 81.767,61.717 75.191 C 62.695 69.652,62.936 67.359,62.774 65.120 L 62.646 63.345 64.380 61.911 C 68.704 58.335,73.704 55.712,77.734 54.906 C 78.325 54.788,78.984 54.653,79.199 54.605 C 80.644 54.286,84.503 54.614,85.688 55.156 M32.822 59.484 C 33.963 60.859,32.299 69.065,29.668 75.046 C 25.879 83.657,16.408 93.038,12.052 92.494 L 10.978 92.360 11.255 91.151 C 12.118 87.391,13.565 83.407,15.386 79.774 C 21.045 68.487,30.837 57.092,32.822 59.484 M300.028 64.930 C 303.239 65.611,304.246 66.843,304.484 70.386 C 304.623 72.458,304.894 72.963,305.781 72.798 C 306.170 72.726,306.148 72.857,305.340 75.375 C 303.961 79.677,303.157 82.272,302.942 83.113 L 302.742 83.902 299.271 85.534 C 289.285 90.230,287.418 90.200,284.015 85.287 C 278.029 76.644,283.362 66.432,294.727 64.773 C 295.949 64.594,298.850 64.681,300.028 64.930 M305.924 120.105 C 304.152 120.909,304.707 123.438,306.654 123.438 C 308.548 123.438,309.298 120.537,307.561 119.932 C 306.821 119.673,306.890 119.666,305.924 120.105 M316.610 121.377 C 316.405 121.624,315.733 127.148,315.322 131.969 C 315.194 133.481,315.157 133.578,314.639 133.793 C 313.503 134.264,313.300 134.766,314.245 134.766 L 315.073 134.766 314.934 137.158 L 314.795 139.551 313.896 140.625 C 311.667 143.288,309.786 145.026,309.472 144.711 C 309.086 144.326,308.547 141.739,308.630 140.674 C 308.665 140.217,308.617 139.844,308.523 139.844 C 308.428 139.844,308.384 138.167,308.424 136.084 L 308.496 132.324 307.924 132.324 C 307.120 132.324,307.038 132.751,306.896 137.655 L 306.776 141.814 305.348 143.148 C 301.618 146.632,297.126 146.323,295.993 142.505 C 294.892 138.800,299.797 132.953,302.732 134.471 C 303.885 135.068,304.480 133.783,303.383 133.064 C 301.302 131.701,297.237 133.915,295.364 137.432 C 291.097 145.443,300.165 151.156,305.919 144.082 C 306.893 142.883,306.926 142.891,307.124 144.369 C 307.694 148.640,311.271 147.703,313.960 142.578 L 314.831 140.918 314.837 142.324 C 314.864 148.064,318.062 149.752,321.496 145.838 C 322.077 145.175,322.381 144.959,322.527 145.105 C 323.293 145.871,325.270 145.038,326.291 143.520 L 326.898 142.616 327.026 144.442 C 327.437 150.278,325.905 153.787,321.849 156.301 C 320.817 156.941,320.283 155.890,319.800 152.263 C 319.619 150.908,319.444 149.827,319.411 149.860 C 319.235 150.036,318.752 153.804,318.755 154.980 C 318.766 159.412,322.020 159.997,325.774 156.243 C 329.123 152.894,329.776 149.007,328.841 137.988 C 328.433 133.189,328.383 133.008,327.470 133.008 C 326.549 133.008,326.444 133.215,326.182 135.547 C 325.136 144.844,322.248 146.001,322.525 137.012 C 322.575 135.400,322.647 133.862,322.685 133.594 C 322.786 132.877,321.952 132.780,321.687 133.478 C 321.052 135.148,320.931 142.373,321.515 143.749 L 321.805 144.432 320.955 145.081 C 318.816 146.714,317.557 146.756,317.008 145.212 C 316.700 144.344,316.467 137.244,316.688 135.469 L 316.816 134.449 318.515 133.898 C 320.343 133.304,323.557 131.890,323.410 131.743 C 323.361 131.694,321.894 131.971,320.151 132.358 C 318.408 132.746,316.945 133.025,316.899 132.979 C 316.798 132.879,317.500 125.053,317.778 123.186 C 318.045 121.389,317.413 120.409,316.610 121.377 M306.799 121.631 C 306.719 122.043,306.373 122.017,306.285 121.592 C 306.248 121.415,306.355 121.289,306.543 121.289 C 306.744 121.289,306.840 121.417,306.799 121.631 M225.405 124.495 C 225.167 124.782,223.358 131.808,223.129 133.337 C 222.974 134.368,222.831 134.448,220.605 134.760 C 218.088 135.112,217.969 135.149,217.969 135.569 C 217.969 136.129,218.324 136.187,220.604 135.999 L 222.668 135.829 222.570 136.323 C 220.368 147.431,224.196 152.110,231.487 147.219 C 233.408 145.930,233.303 145.872,230.814 146.846 C 224.612 149.270,222.780 147.021,223.832 138.276 C 224.174 135.430,224.061 135.625,225.579 135.282 C 227.755 134.791,230.965 133.427,230.650 133.128 C 230.604 133.084,229.209 133.301,227.550 133.608 C 225.890 133.916,224.513 134.148,224.489 134.124 C 224.417 134.052,225.718 128.091,226.178 126.387 C 226.703 124.443,226.289 123.429,225.405 124.495 M264.417 124.952 C 263.748 126.094,263.466 127.734,263.083 132.705 C 262.556 139.551,262.195 142.836,261.680 145.461 L 261.249 147.660 260.556 147.852 C 257.731 148.637,257.039 147.294,257.037 141.016 C 257.035 136.037,256.937 136.324,258.870 135.667 C 259.753 135.367,260.821 134.954,261.244 134.748 L 262.012 134.373 260.258 134.486 C 259.294 134.547,258.247 134.649,257.932 134.712 L 257.360 134.827 257.481 133.673 C 257.662 131.949,258.551 127.287,258.888 126.297 C 259.307 125.060,258.885 124.335,258.017 124.800 C 257.492 125.081,256.260 130.161,255.764 134.087 L 255.639 135.068 253.575 135.500 C 251.311 135.974,250.977 136.147,250.977 136.845 C 250.977 137.696,251.666 137.797,253.696 137.242 L 255.493 136.751 255.351 137.858 C 254.251 146.466,256.592 151.022,260.953 148.759 C 261.502 148.475,262.151 148.242,262.396 148.242 C 263.026 148.242,263.174 147.997,263.876 145.797 C 264.715 143.168,266.031 139.844,266.232 139.844 C 266.561 139.844,266.956 140.983,267.656 143.952 C 268.670 148.253,269.355 149.160,271.424 148.937 C 273.344 148.730,273.747 148.398,272.295 148.219 C 270.137 147.953,270.115 147.921,269.542 144.326 C 268.646 138.696,267.262 136.754,265.164 138.178 C 264.305 138.761,264.340 139.358,264.861 133.002 C 265.403 126.390,265.246 123.539,264.417 124.952 M89.388 125.716 C 89.316 125.788,89.258 126.182,89.258 126.592 C 89.258 127.307,88.869 128.916,86.409 138.379 C 85.063 143.561,84.948 144.973,85.774 146.224 C 87.442 148.749,93.047 148.643,99.472 145.967 L 100.605 145.495 101.159 145.889 C 105.068 148.672,109.952 146.725,109.952 142.383 C 109.952 137.934,104.371 135.689,98.145 137.634 C 96.697 138.086,96.586 138.327,97.852 138.269 C 98.442 138.242,99.291 138.233,99.738 138.250 L 100.550 138.281 99.864 139.618 C 99.017 141.269,98.910 142.843,99.561 144.092 L 99.966 144.869 98.665 144.987 C 91.729 145.619,88.704 145.557,87.825 144.767 C 87.252 144.252,87.472 142.569,89.050 135.384 C 90.716 127.798,90.966 126.290,90.625 125.879 C 90.377 125.580,89.623 125.481,89.388 125.716 M150.601 126.392 C 150.469 126.836,150.329 127.517,150.291 127.906 C 150.253 128.295,149.959 129.712,149.638 131.055 C 148.091 137.522,147.461 142.974,148.023 145.039 C 148.932 148.377,152.326 149.046,155.614 146.535 L 156.465 145.886 157.021 146.282 C 159.373 147.956,163.360 147.234,166.824 144.506 L 167.535 143.947 167.671 144.672 C 168.208 147.532,170.805 148.161,173.326 146.040 C 173.938 145.525,174.319 145.319,174.370 145.474 C 175.013 147.401,177.400 147.767,179.897 146.321 C 181.242 145.542,181.324 145.521,182.159 145.731 C 183.931 146.177,186.054 145.479,188.037 143.798 L 189.258 142.763 189.258 144.092 C 189.258 145.678,189.585 146.289,190.434 146.289 C 191.158 146.289,191.472 145.734,191.357 144.656 C 190.866 140.021,194.043 136.328,198.522 136.328 C 198.578 136.328,198.573 136.576,198.513 136.879 C 198.351 137.690,198.810 138.587,200.261 140.291 C 200.974 141.127,201.653 141.992,201.772 142.213 C 202.494 143.564,200.406 144.989,197.322 145.250 C 195.696 145.387,195.666 145.649,197.215 146.177 C 201.003 147.468,204.731 144.812,203.446 141.737 C 203.301 141.388,202.472 140.337,201.604 139.401 C 199.753 137.402,199.562 136.997,200.217 136.467 C 201.296 135.593,204.118 136.369,204.262 137.580 C 204.339 138.223,204.804 138.444,205.216 138.032 C 206.881 136.367,202.094 134.132,199.586 135.402 C 198.835 135.782,198.568 135.820,197.648 135.680 C 195.100 135.290,192.855 135.773,191.543 136.992 C 190.837 137.647,190.837 137.647,190.881 136.670 C 190.916 135.889,190.884 135.836,190.353 135.775 C 189.525 135.681,189.450 135.953,189.483 138.945 C 189.519 142.097,189.743 141.727,186.949 143.119 C 183.168 145.003,180.859 144.208,180.859 141.022 C 180.859 140.133,180.902 140.039,181.299 140.037 C 184.295 140.024,186.025 135.712,183.463 134.642 C 180.076 133.226,177.424 141.263,180.206 144.513 L 180.873 145.293 179.576 145.693 C 175.757 146.873,174.610 145.253,176.480 141.320 C 177.751 138.646,177.738 138.411,176.406 140.011 L 175.432 141.182 175.521 140.366 C 175.722 138.528,176.210 135.216,176.404 134.378 L 176.610 133.482 178.591 132.975 C 179.681 132.696,181.186 132.175,181.936 131.818 L 183.301 131.169 182.520 131.097 C 181.780 131.028,178.905 131.299,177.595 131.561 L 176.991 131.682 177.497 129.691 C 178.031 127.590,177.982 127.103,177.226 127.001 C 176.555 126.910,176.372 127.244,175.747 129.709 L 175.128 132.149 172.671 132.752 C 171.320 133.084,170.175 133.318,170.127 133.272 C 170.078 133.227,170.247 132.116,170.501 130.804 C 171.165 127.371,171.154 127.066,170.357 126.989 C 169.526 126.909,169.362 127.302,168.651 131.077 L 168.114 133.932 166.553 134.288 C 164.605 134.733,164.063 135.176,164.759 135.753 C 165.011 135.962,165.307 135.949,166.448 135.675 C 168.111 135.276,167.970 135.143,167.765 136.914 C 167.672 137.720,167.591 139.355,167.587 140.548 L 167.578 142.716 165.745 143.626 C 162.824 145.076,160.548 145.548,158.887 145.047 C 157.822 144.726,157.861 144.622,159.837 142.481 C 162.029 140.107,161.927 140.039,159.243 142.084 L 157.085 143.730 156.840 143.203 C 156.706 142.913,156.550 142.137,156.496 141.479 L 156.396 140.283 157.677 140.295 C 161.261 140.329,163.724 135.718,160.902 134.259 C 157.294 132.393,153.023 139.749,155.203 144.075 L 155.612 144.888 154.251 145.589 C 149.077 148.250,148.089 143.898,150.777 130.273 C 151.656 125.820,151.678 125.586,151.225 125.586 C 150.947 125.586,150.778 125.805,150.601 126.392 M119.643 133.851 C 118.832 134.914,117.670 137.597,116.585 140.912 L 115.563 144.031 114.899 142.572 C 114.533 141.770,113.924 140.146,113.545 138.965 C 112.451 135.551,112.121 134.960,111.453 135.217 C 110.717 135.499,110.677 136.623,111.326 138.824 C 112.460 142.672,114.061 146.730,114.675 147.314 C 117.216 149.730,119.829 143.939,120.182 135.107 C 120.269 132.933,120.295 132.995,119.643 133.851 M174.591 134.555 C 174.221 136.203,173.809 139.445,173.745 141.211 L 173.678 143.066 172.630 143.790 C 170.580 145.205,170.062 145.025,169.709 142.773 C 169.490 141.369,169.573 135.783,169.824 135.129 C 169.906 134.915,173.044 134.054,174.637 133.808 C 174.707 133.798,174.686 134.134,174.591 134.555 M126.712 134.569 C 123.440 135.555,121.072 140.394,122.460 143.259 C 124.068 146.582,130.207 147.533,135.107 145.219 C 136.371 144.622,137.070 143.964,136.182 144.208 C 131.926 145.376,126.217 144.823,124.468 143.074 C 123.542 142.148,123.161 140.207,123.966 140.516 C 125.424 141.075,127.187 140.747,128.346 139.700 C 131.109 137.204,129.958 133.592,126.712 134.569 M275.348 135.069 C 274.621 135.464,273.895 136.775,273.464 138.474 C 273.265 139.256,273.041 139.797,272.966 139.675 C 272.733 139.298,271.914 139.415,271.777 139.844 C 271.588 140.441,271.844 140.990,272.463 141.309 C 272.922 141.547,273.045 141.765,273.148 142.528 C 274.004 148.887,278.250 150.482,285.402 147.131 C 287.409 146.191,287.231 146.151,284.350 146.897 C 278.124 148.508,275.217 147.231,274.678 142.647 L 274.560 141.635 275.335 141.239 C 276.884 140.449,278.125 138.468,278.125 136.785 C 278.125 135.186,276.726 134.321,275.348 135.069 M231.979 135.631 C 229.024 136.686,227.788 138.550,228.326 141.141 C 229.514 146.865,237.921 146.585,237.956 140.821 C 237.979 136.973,235.137 134.505,231.979 135.631 M160.084 136.226 C 160.401 137.053,158.710 138.554,157.590 138.439 L 157.002 138.379 157.570 137.535 C 158.464 136.209,159.809 135.508,160.084 136.226 M128.284 136.663 C 128.472 137.981,126.934 139.403,125.119 139.590 C 123.842 139.722,123.829 139.692,124.638 138.432 C 125.864 136.521,128.109 135.432,128.284 136.663 M183.008 136.843 C 183.008 137.391,182.045 138.477,181.558 138.477 C 181.001 138.477,181.295 137.629,182.183 136.677 C 182.744 136.075,183.008 136.128,183.008 136.843 M276.090 137.778 C 275.915 138.237,275.543 138.824,275.264 139.082 L 274.756 139.551 274.901 139.063 C 275.180 138.125,275.603 137.219,275.930 136.857 C 276.399 136.339,276.474 136.773,276.090 137.778 M233.562 137.651 C 234.826 138.234,235.845 140.605,235.349 141.804 C 234.022 145.006,228.954 142.356,230.056 139.036 C 230.711 137.062,231.560 136.727,233.562 137.651 M104.362 139.070 C 108.845 140.759,108.908 145.970,104.440 145.440 C 101.042 145.038,99.669 142.494,101.057 139.172 L 101.368 138.426 102.361 138.558 C 102.907 138.630,103.807 138.861,104.362 139.070 " stroke="none" fill="#000000" fill-rule="evenodd"></path></g></svg>